<svg width="150" height="39" viewBox="0 0 150 39" fill="none" xmlns="http://www.w3.org/2000/svg">
<g clip-path="url(#clip0_4_109)">
<path d="M118.477 0.264648V37.6988H123.204V9.12222L146.006 37.6988H150V0.31701H145.271V29.4215L122.155 0.264648H118.477Z" fill="black"/>
<path d="M113.222 0.263229H108.493V37.6974H113.222V0.263229Z" fill="black"/>
<path d="M73.3459 37.6988V0.31701H78.0749V20.9856L97.3035 0.264648H102.4L87.4255 16.767L103.24 37.7003H98.0909L84.5344 19.5096L78.0735 26.2586V37.7003H73.3459V37.6988Z" fill="black"/>
<path d="M24.8525 8.12027C24.4326 7.6292 23.8713 7.15371 23.1701 6.6966C22.4689 6.2395 21.6814 5.82769 20.8063 5.45833C19.9312 5.08897 18.9755 4.79036 17.942 4.56252C16.9086 4.33468 15.8313 4.22005 14.7102 4.22005C11.8035 4.22005 9.67436 4.76489 8.32705 5.85458C6.97974 6.94426 6.30537 8.43868 6.30537 10.335C6.30537 11.3554 6.49764 12.1988 6.88219 12.8653C7.26814 13.5333 7.87182 14.105 8.69463 14.5791C9.51744 15.0546 10.541 15.4679 11.7681 15.8188C12.9925 16.1712 14.4472 16.5406 16.1296 16.9255C18.0551 17.3458 19.7983 17.8312 21.3563 18.376C22.9142 18.9209 24.2446 19.5973 25.3501 20.4054C26.4529 21.2149 27.2941 22.197 27.8709 23.3589C28.4477 24.5193 28.7375 25.943 28.7375 27.6299C28.7375 29.4215 28.3855 30.9767 27.6871 32.2957C26.9859 33.6132 26.0316 34.7029 24.8228 35.5633C23.614 36.4252 22.1861 37.0592 20.5405 37.4625C18.8949 37.8644 17.1065 38.0682 15.181 38.0682C12.3082 38.0682 9.58671 37.6196 7.01084 36.7238C4.44062 35.828 2.10226 34.5175 0 32.7952L2.25919 28.7875C2.81904 29.3847 3.54713 29.9819 4.43921 30.5805C5.3327 31.1777 6.34778 31.7141 7.48586 32.1896C8.62394 32.6651 9.84967 33.0514 11.1631 33.35C12.475 33.6486 13.8506 33.7986 15.287 33.7986C17.9477 33.7986 20.016 33.3231 21.4863 32.3749C22.9566 31.4268 23.6918 30.0031 23.6918 28.1039C23.6918 27.0496 23.4557 26.1623 22.9835 25.4406C22.5099 24.7203 21.8186 24.0962 20.9095 23.5683C19.9991 23.0404 18.8695 22.5749 17.5207 22.1715C16.172 21.7682 14.6395 21.355 12.9232 20.9318C11.0316 20.4747 9.36758 19.9837 7.93261 19.4558C6.49623 18.928 5.29595 18.2968 4.33318 17.5567C3.3704 16.8193 2.64232 15.9221 2.15316 14.8678C1.66117 13.8135 1.418 12.5483 1.418 11.0709C1.418 9.27788 1.75024 7.69713 2.41612 6.32583C3.082 4.95452 4.01084 3.7955 5.20122 2.84592C6.39161 1.89775 7.81103 1.1845 9.45664 0.710417C11.1037 0.237749 12.8893 0 14.8148 0C17.3355 0 19.6131 0.386343 21.6447 1.16044C23.6748 1.93454 25.4802 2.97045 27.0565 4.27241L24.8525 8.12027Z" fill="black"/>
<path d="M51.3648 15.5698C51.4072 15.5485 51.451 15.5287 51.4934 15.5089C52.0928 15.233 52.7446 15.0518 53.4034 15.066C54.0636 15.0801 54.7309 15.3051 55.2074 15.7608C55.9807 16.4967 56.132 17.6826 56.0316 18.7482C55.8718 20.4493 55.1678 22.1206 55.3827 23.8485C55.4378 24.2929 55.565 24.7458 55.852 25.0882C56.1715 25.4675 56.6593 25.6769 57.1499 25.7449C57.762 25.8312 58.3897 25.7364 58.9948 25.6444C59.5646 25.5581 60.1357 25.3925 60.714 25.5298C60.9472 25.5835 61.1678 25.684 61.401 25.742C61.6909 25.8142 61.9807 25.7831 62.2493 25.6501C62.7936 25.3826 63.3393 24.3835 63.2715 23.7707C63.2036 23.1537 62.5448 23.1339 62.1433 23.4381C61.8478 23.6631 61.6145 23.9632 61.3106 24.1797C61.0971 24.3311 60.8454 24.4429 60.5867 24.45C59.7936 24.4726 59.1616 23.6617 58.7941 23.0518C58.722 22.9329 58.6555 22.8013 58.6668 22.6655C58.7248 21.8687 60.2587 21.7597 60.796 21.8885C61.1367 21.9692 62.8544 22.7617 62.7272 21.8461C62.7116 21.7272 62.6536 21.6196 62.5914 21.5163C62.1758 20.8342 61.5368 20.3191 61.0886 19.6568C60.4722 18.7482 59.8912 17.7817 59.344 16.8293C59.2168 16.6085 59.1475 16.3241 59.2747 16.1019C59.3666 15.9434 59.5547 15.8486 59.7342 15.8684C59.9194 15.8882 60.0834 16.0155 60.2686 16.0071C60.5387 15.9929 60.7111 15.6759 60.6758 15.4056C60.6235 15.0193 60.2686 14.5919 60.0141 14.3117C59.713 13.9791 59.3652 13.6904 59.0344 13.3862C58.394 12.7974 57.7394 12.2186 56.9887 11.7743C55.9651 11.17 54.8497 10.7214 53.7003 10.427C50.5731 9.62038 47.3059 9.91615 44.1843 10.5671C43.9764 10.611 43.77 10.6605 43.565 10.7186C43.3784 10.7709 43.1565 10.8983 43.1989 11.1275C43.2201 11.245 43.3007 11.3412 43.3897 11.4233C43.4774 11.504 43.5749 11.5733 43.6513 11.6639C43.6965 11.7177 43.9256 12.0658 43.7474 12.0998C43.6937 12.1111 43.6428 12.0757 43.6004 12.0446C43.0264 11.6285 42.4538 11.2209 41.8219 10.8997C41.255 10.6124 40.4915 10.2445 39.8426 10.2445C38.9435 10.11 37.951 10.2105 37.1579 10.6874C36.7055 10.9591 36.3252 11.3752 36.1612 11.879C35.9322 12.5795 36.1372 13.3522 36.468 14.0102C36.656 14.3867 36.8907 14.7376 37.1367 15.0773C37.3092 15.315 37.8195 15.7721 37.7658 16.1019C37.705 16.4684 36.8511 16.8448 36.5641 17.0387C35.2592 17.919 33.9458 18.8742 32.5504 19.6044C32.4246 19.6766 32.3525 19.7106 32.3101 19.695C32.2564 19.6766 32.2437 19.5874 32.2295 19.412C32.2083 19.1629 32.2083 18.9138 32.2154 18.6648C32.2295 18.1638 32.2903 17.6656 32.3737 17.1732C32.7229 15.0929 33.2799 13.072 34.2243 11.1799C38.1136 3.3837 47.0966 -0.57454 55.3911 1.85107C64.1791 4.42103 69.7168 13.0663 68.3525 22.1503C67.6428 26.8798 65.4034 30.7645 61.6937 33.7717C58.681 36.2143 54.9105 37.6139 51.0396 37.7399C49.8492 37.7795 48.6546 37.6989 47.4797 37.4951C47.4218 37.4866 47.3624 37.4738 47.3143 37.4413C47.1277 37.3139 47.2323 36.8894 47.2281 36.6927C47.2224 36.3332 47.2253 35.9709 47.2309 35.6101C47.2634 34.1255 47.7964 32.6495 48.6645 31.4509C49.3742 30.4687 50.3228 29.6621 51.4015 29.1144C52.6527 28.479 54.0792 28.4663 55.4505 28.503C56.7116 28.5356 58.2554 28.7535 59.385 28.0587C59.5179 27.9766 59.7059 27.8195 59.5731 27.6412C59.4416 27.4686 59.0528 27.6143 58.893 27.661C57.4086 28.0997 56.1009 27.6992 54.7832 27.0143C54.1075 26.6633 53.6805 25.735 53.426 25.0514C53.0599 24.0707 53.0542 22.9895 53.3638 21.9947C53.7031 20.9021 54.4482 19.4926 53.6522 18.4171C53.3794 18.0477 52.9524 17.8171 52.5085 17.7081C52.0632 17.5977 51.6009 17.6005 51.1442 17.6274C50.9166 17.6402 50.6833 17.66 50.4628 17.602C50.2408 17.5439 50.0288 17.3968 49.9623 17.1774C49.8831 16.9142 50.0316 16.6382 50.2083 16.4288C50.5222 16.0523 50.9322 15.7806 51.3648 15.5698Z" fill="#FF3333"/>
<path d="M44.655 27.3667C44.6423 27.6341 44.4967 27.8959 44.2959 28.0799C44.0556 28.2993 43.746 28.4252 43.4335 28.5186C43.066 28.6276 42.6701 28.6969 42.287 28.6134C42.0509 28.5611 41.8204 28.4365 41.6904 28.2313C41.5306 27.9837 41.5391 27.6483 41.672 27.3836C41.8049 27.119 42.0452 26.9209 42.311 26.7921C42.8864 26.5133 44.4953 26.2359 44.6451 27.2082C44.655 27.2619 44.6564 27.3143 44.655 27.3667Z" fill="#FF3333"/>
<path d="M41.6635 17.4718C41.3624 17.4788 41.0669 17.4392 40.8548 17.3543C40.4957 17.2128 40.2073 16.8137 40.3247 16.4472C40.5834 15.6335 42.3181 15.4735 42.8567 16.0212C43.0165 16.1825 43.0857 16.4274 43.0504 16.6524C43.015 16.8774 42.8751 17.0826 42.687 17.21C42.4411 17.377 42.0466 17.4633 41.6635 17.4718Z" fill="#FF3333"/>
<path d="M34.0363 23.6108C33.9345 23.6108 33.8355 23.5981 33.7394 23.5712C33.4142 23.4834 33.1301 23.1877 33.1386 22.8494C33.1428 22.7022 33.1993 22.5621 33.263 22.4305C33.3633 22.2225 33.4835 22.0201 33.6503 21.8616C34.1918 21.3493 35.5829 21.4555 35.4967 22.4291C35.4373 23.1042 34.7022 23.6136 34.0363 23.6108Z" fill="#FF3333"/>
<path d="M39.2516 25.7788C39.1597 25.7803 39.0721 25.7746 38.9929 25.7633C38.7059 25.718 38.4274 25.5779 38.2436 25.3529C38.0584 25.1264 37.9778 24.8109 38.0641 24.5307C38.1998 24.082 38.6847 23.9306 39.1046 24.0325C39.5075 24.1302 40.0843 24.2292 40.312 24.6241C40.7375 25.3727 39.9048 25.7647 39.2516 25.7788Z" fill="#FF3333"/>
<path d="M45.1357 22.9499C45.0155 22.9541 44.8968 22.9471 44.7794 22.9287C44.3369 22.8565 43.7842 22.497 43.828 21.9819C43.8492 21.7173 44.057 21.4937 44.3016 21.3918C44.6692 21.2347 45.1711 21.2743 45.5485 21.3875C45.8482 21.4781 46.1282 21.6578 46.2964 21.9225C46.3883 22.0668 46.4449 22.2466 46.3911 22.4079C46.2837 22.7334 45.8907 22.8508 45.5909 22.9004C45.4383 22.9273 45.2856 22.9442 45.1357 22.9499Z" fill="#FF3333"/>
<path d="M45.2771 33.5411C44.8897 33.5722 44.542 33.4024 44.4161 32.9127C44.1305 31.8117 45.4793 31.9447 46.0999 31.898C46.4562 31.8712 46.7672 31.8995 46.7064 32.3396C46.6216 32.9269 45.8992 33.4915 45.2771 33.5411Z" fill="#FF3333"/>
<path d="M41.4953 13.5177C41.1928 13.4456 40.9694 13.0422 40.8026 12.7606C40.4505 12.1663 39.8073 11.8507 39.27 11.4558C38.836 11.1374 39.533 11.1572 39.7182 11.1983C40.1211 11.2903 40.459 11.5351 40.7927 11.7672C41.1687 12.0304 41.6324 12.1705 41.9661 12.496C42.2333 12.7564 42.2375 13.1526 41.9378 13.389C41.7724 13.5177 41.6254 13.5489 41.4953 13.5177Z" fill="#FF3333"/>
<path d="M44.279 35.3312C44.279 35.3298 44.279 35.3256 44.279 35.3242C44.2436 34.6364 45.205 35.1756 45.417 35.3383C45.5132 35.4119 45.6093 35.4926 45.6715 35.5973C45.7337 35.702 45.7634 35.835 45.7168 35.9483C45.6051 36.2256 45.212 36.1223 45.0127 36.036C44.8275 35.9553 44.6465 35.8563 44.4981 35.719C44.3878 35.6157 44.2917 35.4827 44.279 35.3312Z" fill="#FF3333"/>
<path d="M47.2338 14.0102C47.4232 14.4631 46.4194 14.5678 46.1904 14.5381C46.0448 14.5183 45.8893 14.4659 45.8172 14.3371C45.4609 13.6961 46.9962 13.4484 47.2338 14.0102Z" fill="#FF3333"/>
</g>
<defs>
<clipPath id="clip0_4_109">
<rect width="150" height="38.0682" fill="white"/>
</clipPath>
</defs>
</svg>
